HIERARCHY
ROOT Hips
{
	OFFSET -0.179506 -22.333345 2.821913
	CHANNELS 6 Xposition Yposition Zposition Zrotation Yrotation Xrotation 
	JOINT LeftUpLeg
	{
		OFFSET 6.951974 -9.140623 -0.681533
		CHANNELS 3 Zrotation Yrotation Xrotation
		JOINT LeftLeg
		{
			OFFSET 3.427654 -37.519855 -0.449580
			CHANNELS 3 Zrotation Yrotation Xrotation
			JOINT LeftFoot
			{
				OFFSET -1.359570 -39.796059 -4.369333
				CHANNELS 3 Zrotation Yrotation Xrotation
				JOINT LeftToe
				{
					OFFSET 2.635814 -5.579078 11.928840
					CHANNELS 3 Zrotation Yrotation Xrotation
					End Site
					{
						OFFSET 0.000000 0.000000 0.000000
					}
				}
			}
		}
	}
	JOINT RightUpLeg
	{
		OFFSET -6.767048 -9.052170 -0.431982
		CHANNELS 3 Zrotation Yrotation Xrotation
		JOINT RightLeg
		{
			OFFSET -3.829005 -38.256897 -0.885003
			CHANNELS 3 Zrotation Yrotation Xrotation
			JOINT RightFoot
			{
				OFFSET 1.577377 -39.841461 -4.231180
				CHANNELS 3 Zrotation Yrotation Xrotation
				JOINT RightToe
				{
					OFFSET -2.537174 -4.814398 12.334795
					CHANNELS 3 Zrotation Yrotation Xrotation
					End Site
					{
						OFFSET 0.000000 0.000000 0.000000
					}
				}
			}
		}
	}
	JOINT Spine
	{
		OFFSET -0.253288 10.896323 -2.669631
		CHANNELS 3 Zrotation Yrotation Xrotation
		JOINT Spine1
		{
			OFFSET 0.548704 13.518043 0.109247
			CHANNELS 3 Zrotation Yrotation Xrotation
			JOINT Spine2
			{
				OFFSET 0.145701 5.292222 2.542457
				CHANNELS 3 Zrotation Yrotation Xrotation
				JOINT Neck
				{
					OFFSET -0.277840 21.387037 -4.285703
					CHANNELS 3 Zrotation Yrotation Xrotation
					JOINT Head
					{
						OFFSET 0.515184 6.496960 5.134897
						CHANNELS 3 Zrotation Yrotation Xrotation
						End Site
						{
							OFFSET 0.000000 0.000000 0.000000
						}
					}
				}
				JOINT LeftShoulder
				{
					OFFSET 7.884473 12.174932 -3.408961
					CHANNELS 3 Zrotation Yrotation Xrotation
					JOINT LeftArm
					{
						OFFSET 9.097692 3.046888 -0.886815
						CHANNELS 3 Zrotation Yrotation Xrotation
						JOINT LeftForeArm
						{
							OFFSET 25.961220 -1.277207 -2.745643
							CHANNELS 3 Zrotation Yrotation Xrotation
							JOINT LeftHand
							{
								OFFSET 24.923361 0.898606 -0.117091
								CHANNELS 3 Zrotation Yrotation Xrotation
								End Site
								{
									OFFSET 0.000000 0.000000 0.000000
								}
							}
						}
					}
				}
				JOINT RightShoulder
				{
					OFFSET -8.175920 11.883285 -3.861528
					CHANNELS 3 Zrotation Yrotation Xrotation
					JOINT RightArm
					{
						OFFSET -9.601238 3.255117 -0.914307
						CHANNELS 3 Zrotation Yrotation Xrotation
						JOINT RightForeArm
						{
							OFFSET -25.374195 -1.332924 -2.140099
							CHANNELS 3 Zrotation Yrotation Xrotation
							JOINT RightHand
							{
								OFFSET -25.529810 0.777228 -0.555919
								CHANNELS 3 Zrotation Yrotation Xrotation
								End Site
								{
									OFFSET 0.000000 0.000000 0.000000
								}
							}
						}
					}
				}
			}
		}
	}
}
MOTION
Frames: 13
Frame Time: 0.033333
32.791855 -18.771704 86.943993 -119.823887 1.550936 81.496469 17.066388 4.400544 -0.344813 -12.651057 -3.563556 41.084402 1.624318 8.349087 -34.858471 nan nan nan -21.686193 -10.788002 -21.112773 1.831087 -9.708891 47.781997 7.222099 -1.405708 -9.825769 nan nan nan -3.479899 1.366297 10.403136 8.988845 -4.175206 12.161401 2.094234 -1.258209 -2.839594 2.974889 -11.294723 16.156198 1.562709 -14.825072 12.499868 -9.375486 -9.802241 -0.746639 -68.674736 -46.935175 32.167440 137.862942 -68.120494 -107.301220 -5.911465 -16.828436 -1.927529 16.098283 5.119845 -6.183326 34.241487 16.478944 -2.849988 -97.015037 55.920248 -76.366203 8.427583 7.948948 -6.087607 
32.835876 -18.644505 87.291191 -119.807256 1.663898 81.515910 17.357370 4.654225 0.127049 -12.548961 -3.706430 40.015036 1.657377 8.113606 -34.108909 nan nan nan -22.016942 -10.789548 -21.344195 2.319349 -9.876331 48.097293 7.518388 -0.631850 -8.366699 nan nan nan -3.565002 1.349104 10.354916 9.096152 -4.054087 12.481689 2.085274 -1.074739 -3.090978 3.137967 -11.236786 16.450581 1.579663 -15.164582 12.354257 -9.396199 -9.803015 -0.669156 -68.692166 -46.962207 32.250809 138.749740 -67.905440 -108.393179 -5.475890 -16.815833 -1.728104 16.221252 5.136198 -5.872783 33.921829 16.156839 -2.999291 -96.046330 55.965373 -75.760977 8.196991 7.811091 -5.860134 
32.880386 -18.472692 87.704117 -119.754928 1.762033 81.531948 17.635637 4.882524 0.727959 -12.475080 -4.005744 38.702310 1.642812 7.944696 -33.192603 nan nan nan -22.315862 -10.779873 -21.402523 2.769300 -10.069364 48.149164 7.950811 0.109407 -6.698829 nan nan nan -3.689700 1.343254 10.395279 9.230185 -3.940750 12.568271 2.095168 -0.936841 -3.238725 3.275528 -11.123733 16.819013 1.582818 -15.512983 12.162735 -9.372375 -9.652628 -0.631624 -68.775078 -47.000550 32.416958 139.784234 -67.811943 -109.759264 -4.917193 -16.865903 -1.812674 16.355982 5.146573 -5.666024 33.810936 15.867261 -3.021087 -95.091776 55.961113 -75.119952 7.979353 7.763635 -5.744231 
32.945015 -18.277456 88.167709 -119.642362 1.920849 81.653674 17.984984 5.097230 1.250575 -12.318085 -4.260753 37.250629 1.603348 7.653386 -32.133762 nan nan nan -22.453576 -10.728098 -21.408123 3.157991 -10.227716 47.890407 8.335625 0.762576 -5.063907 nan nan nan -3.755363 1.320713 10.336125 9.380351 -3.853578 12.538847 2.096095 -0.801371 -3.271306 3.389686 -10.999008 17.187342 1.517703 -15.895052 12.045039 -9.295736 -9.478545 -0.581722 -68.822277 -47.102029 32.567513 140.636250 -67.688444 -110.983788 -4.582365 -17.021083 -2.067235 16.477628 5.086396 -5.583103 33.804798 15.650235 -2.998201 -94.113588 55.996944 -74.119169 8.051859 7.643614 -5.081710 
33.007015 -18.061768 88.673294 -119.438927 2.161987 81.919440 18.381424 5.283853 1.520591 -12.048514 -4.433332 35.915402 1.436981 7.222105 -30.894992 nan nan nan -22.416738 -10.669039 -21.365933 3.484310 -10.302184 47.334801 8.677496 1.351196 -3.678703 nan nan nan -3.738925 1.188998 10.179819 9.499883 -3.832205 12.401316 2.084931 -0.568593 -3.341789 3.499260 -10.961073 17.659322 1.506214 -16.164399 11.940093 -9.192390 -9.297692 -0.435874 -68.911052 -47.214293 32.696509 141.295319 -67.517424 -111.750995 -4.670560 -17.363753 -2.542052 16.554632 4.934569 -5.388926 33.914297 15.408656 -2.943330 -93.130206 55.955053 -72.707863 8.430433 7.507765 -4.421100 
33.081680 -17.803886 89.216331 -119.129642 2.429707 82.221665 18.767498 5.373959 1.583713 -11.735478 -4.577639 34.827175 1.136797 6.801977 -29.534951 nan nan nan -22.274185 -10.526213 -21.167774 3.750618 -10.321079 46.492197 8.879294 1.861074 -2.600563 nan nan nan -3.716680 1.032636 10.008158 9.611293 -3.889839 12.226646 2.113038 -0.333720 -3.474647 3.570784 -10.845487 18.307643 1.639459 -16.424809 11.630156 -9.060934 -9.153053 -0.281740 -68.920807 -47.282524 32.713682 142.026953 -67.349833 -112.229759 -4.830482 -17.814659 -2.955928 16.515338 4.825922 -4.993789 34.252067 15.119366 -2.925378 -92.337988 55.837497 -71.459872 8.481389 7.317567 -4.236306 
33.158501 -17.519720 89.786461 -118.692674 2.678948 82.568641 19.087375 5.333383 1.431079 -11.388015 -4.637790 33.954230 0.805559 6.456451 -28.103093 nan nan nan -22.114230 -10.357135 -20.824996 3.963445 -10.390548 45.365111 8.956518 2.181441 -1.631155 nan nan nan -3.677134 0.921627 9.576202 9.698167 -4.083325 12.239157 2.142815 -0.212680 -3.477865 3.624732 -10.676258 18.816462 1.860790 -16.770288 11.314275 -8.887611 -9.113805 -0.225805 -68.817784 -47.298436 32.644465 142.946991 -67.131345 -112.986164 -4.683864 -17.957618 -3.077110 16.457884 4.853205 -4.688521 34.682081 14.819271 -2.887641 -91.539376 55.685868 -70.518613 8.246411 7.108163 -4.059846 
33.247868 -17.205088 90.381874 -118.251842 2.848424 82.906112 19.318704 5.186962 1.224599 -11.115461 -4.684437 33.202227 0.421237 6.249781 -26.593643 nan nan nan -21.934931 -10.164630 -20.428163 4.151153 -10.542394 44.077199 8.761813 2.131898 -0.948586 nan nan nan -3.730230 0.862265 8.963166 9.775887 -4.291135 12.604318 2.168061 -0.172524 -3.526483 3.719902 -10.486979 19.090298 2.101011 -17.106718 11.130497 -8.673568 -9.136142 -0.234686 -68.484579 -47.318943 32.480037 143.881964 -66.810459 -113.857761 -4.482314 -17.881415 -3.118718 16.537781 4.871597 -4.756050 35.140746 14.527692 -2.603334 -90.659383 55.495308 -69.568324 8.124354 6.966689 -3.925100 
33.323101 -16.836132 90.998367 -117.790205 2.947446 83.074799 19.483424 5.025730 1.148458 -10.842562 -4.813720 32.614555 -0.074454 6.007290 -25.017135 nan nan nan -21.729793 -9.997350 -19.782136 3.787776 -10.679007 42.765251 8.861839 1.740974 -0.289815 nan nan nan -3.951256 0.863530 8.587344 9.874982 -4.478749 13.000275 2.296351 -0.132637 -3.742956 3.732977 -10.403426 19.294622 2.348110 -17.264068 11.025894 -8.503467 -9.127053 -0.120409 -68.143220 -47.384777 32.331532 144.605846 -66.482714 -114.417098 -4.436550 -18.054863 -3.533085 16.714117 4.734892 -4.713683 35.578463 14.310039 -2.199486 -89.902430 55.117282 -68.572316 7.751678 6.990746 -4.244299 
33.399235 -16.448809 91.622238 -117.306766 3.017325 83.184182 19.639418 4.824217 1.053529 -10.586754 -4.864092 32.159154 -0.548802 5.774543 -23.508709 nan nan nan -21.531009 -9.847641 -19.034031 3.667824 -10.691390 41.346660 8.604676 1.335858 0.078700 nan nan nan -4.163236 0.930693 8.340243 9.966272 -4.627645 13.264902 2.432945 -0.134317 -3.962172 3.755451 -10.368364 19.497862 2.564801 -17.480290 10.854550 -8.384157 -9.129864 0.081012 -67.845417 -47.503580 32.191731 145.248293 -66.251684 -114.922999 -4.407169 -18.250843 -4.060909 16.903406 4.562905 -4.424206 35.992556 14.076822 -1.952234 -89.147567 54.779768 -67.662226 7.357607 7.037049 -4.641771 
33.516781 -16.062458 92.228661 -116.778111 3.048743 83.452450 19.801967 4.601478 0.652241 -10.382576 -4.752903 31.852697 -0.967070 5.409384 -21.989922 nan nan nan -21.315642 -9.788872 -18.473792 3.575268 -10.944064 39.914226 8.083660 0.798145 0.464012 nan nan nan -4.438212 0.985752 8.078550 10.070880 -4.767545 13.248174 2.588636 -0.182337 -4.082116 3.812808 -10.279017 19.642614 2.709900 -17.827353 10.855096 -8.108581 -9.085810 0.301759 -67.760545 -47.575289 32.125312 145.898489 -65.988855 -115.565083 -4.433067 -18.316735 -4.268583 16.971968 4.380435 -4.082261 36.556071 13.870505 -1.770756 -88.297495 54.582115 -66.919521 7.513447 7.135813 -4.934617 
33.644283 -15.648545 92.825951 -116.327344 3.062349 83.737566 20.007902 4.481537 0.245412 -10.220232 -4.585354 31.575316 -1.403880 4.977456 -20.194041 nan nan nan -21.027248 -9.708206 -17.961869 3.342328 -11.261288 38.458320 7.529996 0.268254 0.968170 nan nan nan -4.795512 1.088296 7.781726 10.203639 -4.874986 13.344170 2.803010 -0.215889 -4.335228 3.864970 -10.119676 19.972007 2.880681 -18.164962 10.644871 -7.874712 -9.046362 0.503056 -67.772529 -47.589825 32.121645 146.472854 -65.720303 -116.126001 -4.428359 -18.414541 -4.436957 16.949640 4.151544 -3.785274 37.231991 13.703323 -1.646530 -87.602136 54.343570 -66.397725 7.479106 7.320434 -5.496791 
33.741348 -15.206841 93.402832 -115.901911 3.051949 83.932007 20.227779 4.403020 -0.034615 -10.061073 -4.386020 31.274057 -1.789316 4.572813 -18.294620 nan nan nan -20.762153 -9.511766 -17.281219 3.180330 -11.325583 36.874658 7.036785 -0.020433 1.595533 nan nan nan -5.146703 1.240188 7.369881 10.306069 -5.002068 13.832956 2.963863 -0.264155 -4.758303 3.999714 -9.953226 20.301375 3.053257 -18.510386 10.369750 -7.848691 -8.942106 0.803826 -67.590530 -47.794110 32.050960 147.169085 -65.506580 -116.966167 -4.529016 -18.461092 -4.288494 17.072974 3.913665 -3.410875 37.799951 13.616747 -1.622327 -87.086603 54.053902 -66.047709 7.389866 7.491395 -5.855889 
